<svg id="Group_1098" data-name="Group 1098" xmlns="http://www.w3.org/2000/svg" viewBox="0 0 16 16">
  <defs>
    <style>
      .cls-1 {
        fill: #fff;
      }
    </style>
  </defs>
  <path id="Path_748" data-name="Path 748" class="cls-1" d="M7.958,0a8,8,0,0,0,0,16,8,8,0,1,0,0-16ZM9.651,12.36c-.423.169-.762.254-1.016.339a2.5,2.5,0,0,1-.847.169A1.791,1.791,0,0,1,6.6,12.529,1.359,1.359,0,0,1,6.18,11.6v-.423c0-.169.085-.339.085-.508L6.772,8.8A1.074,1.074,0,0,0,6.857,8.3a3.667,3.667,0,0,1,.085-.423.716.716,0,0,0-.169-.508c.085,0-.169-.085-.423-.085a.763.763,0,0,0-.423.085c-.085,0-.254.085-.339.085l.169-.593a3.033,3.033,0,0,0,.931-.339,3.726,3.726,0,0,1,.847-.169,1.791,1.791,0,0,1,1.185.339,1.213,1.213,0,0,1,.423.931v.423c0,.169-.085.423-.085.508L8.466,10.5a2.993,2.993,0,0,0-.085.508,3.667,3.667,0,0,1-.085.423.716.716,0,0,0,.169.508.81.81,0,0,0,.593.169.92.92,0,0,0,.423-.085.64.64,0,0,1,.339-.085ZM9.566,4.995a1.087,1.087,0,0,1-.847.339,1.087,1.087,0,0,1-.847-.339.889.889,0,0,1-.423-.762,1.087,1.087,0,0,1,.339-.847,1.087,1.087,0,0,1,.847-.339,1.087,1.087,0,0,1,.847.339,1.087,1.087,0,0,1,.339.847.643.643,0,0,1-.254.762Zm0,0"/>
</svg>
